<?xml version="1.0" encoding="utf-8"?>
<!-- Generator: Adobe Illustrator 23.0.1, SVG Export Plug-In . SVG Version: 6.00 Build 0)  -->
<svg version="1.1" xmlns="http://www.w3.org/2000/svg" xmlns:xlink="http://www.w3.org/1999/xlink" x="0px" y="0px"
	 viewBox="0 0 500 500" style="enable-background:new 0 0 500 500;" xml:space="preserve">
<style type="text/css">
	.st0{fill:url(#SVGID_1_);}
	.st1{fill:url(#SVGID_2_);}
	.st2{fill:url(#SVGID_3_);}
	.st3{fill:url(#SVGID_4_);}
	.st4{fill:url(#SVGID_5_);}
	.st5{fill:url(#SVGID_6_);}
	.st6{fill:url(#SVGID_7_);}
	.st7{clip-path:url(#SVGID_9_);}
	.st8{fill:url(#SVGID_10_);}
	.st9{fill:url(#SVGID_11_);}
	.st10{fill:url(#SVGID_12_);}
	.st11{fill:url(#SVGID_13_);}
	.st12{fill:url(#SVGID_14_);}
	.st13{fill:#DAF1F1;stroke:url(#SVGID_15_);stroke-miterlimit:10;}
	.st14{fill:url(#SVGID_16_);}
	.st15{fill:none;stroke:#00BDB7;stroke-width:2;stroke-linecap:round;stroke-linejoin:round;stroke-miterlimit:10;}
	.st16{fill:none;stroke:#007AB7;stroke-width:2;stroke-linecap:round;stroke-linejoin:round;stroke-miterlimit:10;}
	.st17{clip-path:url(#SVGID_9_);fill:url(#SVGID_17_);}
	.st18{fill:url(#SVGID_18_);}
	.st19{fill:url(#SVGID_19_);}
	.st20{fill:url(#SVGID_20_);}
	.st21{fill:url(#SVGID_21_);}
	.st22{fill:url(#SVGID_22_);}
	.st23{fill:url(#SVGID_23_);}
	.st24{fill:url(#SVGID_24_);}
	.st25{fill:url(#SVGID_25_);}
	.st26{fill:url(#SVGID_26_);}
	.st27{fill:url(#SVGID_27_);}
	.st28{fill:url(#SVGID_28_);}
	.st29{fill:url(#SVGID_29_);}
	.st30{fill:url(#SVGID_30_);}
	.st31{fill:url(#SVGID_31_);}
	.st32{fill:url(#SVGID_32_);}
	.st33{fill:url(#SVGID_33_);}
	.st34{opacity:0.4;fill:url(#SVGID_34_);}
	.st35{opacity:0.5;fill:url(#SVGID_35_);}
	.st36{fill:none;stroke:url(#SVGID_36_);stroke-width:2;stroke-miterlimit:10;}
	.st37{fill:url(#SVGID_37_);}
	.st38{fill:url(#SVGID_38_);}
	.st39{fill:url(#SVGID_39_);}
	.st40{fill:url(#SVGID_40_);}
	.st41{fill:none;stroke:#CC5833;stroke-width:1.4422;stroke-miterlimit:10;}
	.st42{fill:#D4003C;}
	.st43{fill:#FF335B;}
	.st44{fill:#FFFFFF;}
	.st45{fill:none;stroke:#FFFFFF;stroke-width:4;stroke-linecap:round;stroke-linejoin:round;stroke-miterlimit:10;}
</style>
<g id="BACKGROUND">
</g>
<g id="OBJECTS">
	<g>
		<g>
			<linearGradient id="SVGID_1_" gradientUnits="userSpaceOnUse" x1="270.789" y1="68.6614" x2="131.1116" y2="463.8463">
				<stop  offset="0" style="stop-color:#007D73"/>
				<stop  offset="0.2358" style="stop-color:#027875"/>
				<stop  offset="0.5288" style="stop-color:#08687A"/>
				<stop  offset="0.8508" style="stop-color:#114F81"/>
				<stop  offset="1" style="stop-color:#164186"/>
			</linearGradient>
			<path class="st0" d="M318.6,462.6c0,0,0.1-0.1,0.1-0.1c0,0,0.1-0.1,0.1-0.1c0,0,0.1-0.1,0.1-0.1c0,0,0.1-0.1,0.1-0.1
				c0,0,0.1-0.1,0.1-0.1c0,0,0.1-0.1,0.1-0.1c0,0,0.1-0.1,0.1-0.1c0,0,0.1-0.1,0.1-0.1c0,0,0.1-0.1,0.1-0.1c0,0,0.1-0.1,0.1-0.1
				c0,0,0.1-0.1,0.1-0.1c0,0,0.1-0.1,0.1-0.1c0,0,0.1-0.1,0.1-0.1c0,0,0.1-0.1,0.1-0.1c0,0,0.1-0.1,0.1-0.1c0,0,0.1-0.1,0.1-0.1
				c0,0,0.1-0.1,0.1-0.1c0,0,0.1-0.1,0.1-0.1c0,0,0.1-0.1,0.1-0.1c0,0,0.1-0.1,0.1-0.1c0,0,0.1-0.1,0.1-0.1c0,0,0.1-0.1,0.1-0.1
				c0,0,0.1-0.1,0.1-0.1c0,0,0.1-0.1,0.1-0.1c0,0,0.1-0.1,0.1-0.1c0,0,0.1-0.1,0.1-0.1c0,0,0.1-0.1,0.1-0.1c0,0,0.1-0.1,0.1-0.1
				c0,0,0.1-0.1,0.1-0.1c0,0,0.1-0.1,0.1-0.1c0,0,0.1-0.1,0.1-0.1c0,0,0.1-0.1,0.1-0.1c0,0,0.1-0.1,0.1-0.1c0,0,0.1-0.1,0.1-0.1
				c0,0,0.1-0.1,0.1-0.1c0,0,0.1-0.1,0.1-0.1c0,0,0.1-0.1,0.1-0.1c0,0,0.1-0.1,0.1-0.1c0,0,0.1-0.1,0.1-0.1c0,0,0.1-0.1,0.1-0.1
				c0,0,0.1-0.1,0.1-0.1c0,0,0.1-0.1,0.1-0.1c0,0,0.1-0.1,0.1-0.1c0,0,0.1-0.1,0.1-0.1c0,0,0.1-0.1,0.1-0.1c0,0,0.1-0.1,0.1-0.1
				c0,0,0.1-0.1,0.1-0.1c0,0,0.1-0.1,0.1-0.1c0,0,0.1-0.1,0.1-0.1c0,0,0.1-0.1,0.1-0.1c0,0,0.1-0.1,0.1-0.1c0,0,0.1-0.1,0.1-0.1
				c0,0,0.1-0.1,0.1-0.1c0,0,0.1-0.1,0.1-0.1c0,0,0.1-0.1,0.1-0.1c0,0,0.1-0.1,0.1-0.1c0,0,0.1-0.1,0.1-0.1c0,0,0.1-0.1,0.1-0.1
				c0,0,0.1-0.1,0.1-0.1c0,0,0.1-0.1,0.1-0.1c0,0,0.1-0.1,0.1-0.1c0,0,0.1-0.1,0.1-0.1c0,0,0.1-0.1,0.1-0.1c0,0,0.1-0.1,0.1-0.1
				c0,0,0.1-0.1,0.1-0.1c0,0,0.1-0.1,0.1-0.1c0,0,0.1-0.1,0.1-0.1c0,0,0.1-0.1,0.1-0.1c0,0,0.1-0.1,0.1-0.1c0,0,0.1-0.1,0.1-0.1
				c0,0,0.1-0.1,0.1-0.1c0,0,0.1-0.1,0.1-0.1c0,0,0.1-0.1,0.1-0.1c0,0,0.1-0.1,0.1-0.1c0,0,0.1-0.1,0.1-0.1c0,0,0.1-0.1,0.1-0.1
				c0,0,0.1-0.1,0.1-0.1c0,0,0.1-0.1,0.1-0.1c0,0,0.1-0.1,0.1-0.1c0,0,0.1-0.1,0.1-0.1c0,0,0.1-0.1,0.1-0.1c0,0,0.1-0.1,0.1-0.1
				c0,0,0.1-0.1,0.1-0.1c0,0,0.1-0.1,0.1-0.1c0,0,0.1-0.1,0.1-0.1c0,0,0.1-0.1,0.1-0.1c0,0,0.1-0.1,0.1-0.1c0,0,0.1-0.1,0.1-0.1
				c0,0,0.1-0.1,0.1-0.1c0,0,0.1-0.1,0.1-0.1c0,0,0.1-0.1,0.1-0.1c0,0,0.1-0.1,0.1-0.1c0,0,0.1-0.1,0.1-0.1c0,0,0.1-0.1,0.1-0.1
				c0,0,0.1-0.1,0.1-0.1c0,0,0.1-0.1,0.1-0.1c0,0,0.1-0.1,0.1-0.1c0,0,0.1-0.1,0.1-0.1c0,0,0.1-0.1,0.1-0.1c0,0,0.1-0.1,0.1-0.1
				c0,0,0.1-0.1,0.1-0.1c0,0,0.1-0.1,0.1-0.1c0,0,0.1-0.1,0.1-0.1c0,0,0.1-0.1,0.1-0.1c0,0,0.1-0.1,0.1-0.1c0,0,0.1-0.1,0.1-0.1
				c0,0,0.1-0.1,0.1-0.1c0,0,0.1-0.1,0.1-0.1c0,0,0.1-0.1,0.1-0.1c0,0,0.1-0.1,0.1-0.1c0,0,0.1-0.1,0.1-0.1c0,0,0.1-0.1,0.1-0.1
				c0,0,0.1-0.1,0.1-0.1c0,0,0.1-0.1,0.1-0.1c0,0,0.1-0.1,0.1-0.1c0,0,0.1-0.1,0.1-0.1c0,0,0.1-0.1,0.1-0.1c0,0,0.1-0.1,0.1-0.1
				c0,0,0.1-0.1,0.1-0.1c0,0,0.1-0.1,0.1-0.1c0,0,0.1-0.1,0.1-0.1c0,0,0.1-0.1,0.1-0.1c0,0,0.1-0.1,0.1-0.1c0,0,0.1-0.1,0.1-0.1
				c0,0,0.1-0.1,0.1-0.1c0,0,0.1-0.1,0.1-0.1c0,0,0.1-0.1,0.1-0.1c0,0,0.1-0.1,0.1-0.1c0,0,0.1-0.1,0.1-0.1c0,0,0.1-0.1,0.1-0.1
				c0,0,0.1-0.1,0.1-0.1c0,0,0.1-0.1,0.1-0.1c0,0,0.1-0.1,0.1-0.1c0,0,0.1-0.1,0.1-0.1c0,0,0.1-0.1,0.1-0.1c0,0,0.1-0.1,0.1-0.1
				c0,0,0.1-0.1,0.1-0.1c0,0,0.1-0.1,0.1-0.1c0,0,0.1-0.1,0.1-0.1c0,0,0.1-0.1,0.1-0.1c0,0,0.1-0.1,0.1-0.1c0,0,0.1-0.1,0.1-0.1
				c0,0,0.1-0.1,0.1-0.1c0,0,0.1-0.1,0.1-0.1c0,0,0.1-0.1,0.1-0.1c0,0,0.1-0.1,0.1-0.1c0,0,0.1-0.1,0.1-0.1c0,0,0.1-0.1,0.1-0.1
				c0,0,0.1-0.1,0.1-0.1c0,0,0.1-0.1,0.1-0.1c0,0,0.1-0.1,0.1-0.1c0,0,0.1-0.1,0.1-0.1c0,0,0.1-0.1,0.1-0.1c0,0,0.1-0.1,0.1-0.1
				c0,0,0.1-0.1,0.1-0.1c0,0,0.1-0.1,0.1-0.1c0,0,0.1-0.1,0.1-0.1c0,0,0.1-0.1,0.1-0.1c0,0,0.1-0.1,0.1-0.1c0,0,0.1-0.1,0.1-0.1
				c0,0,0.1-0.1,0.1-0.1c0,0,0.1-0.1,0.1-0.1c0,0,0.1-0.1,0.1-0.1c0,0,0.1-0.1,0.1-0.1c0,0,0.1-0.1,0.1-0.1c0,0,0.1-0.1,0.1-0.1
				c0,0,0.1-0.1,0.1-0.1c0,0,0.1-0.1,0.1-0.1c0,0,0.1-0.1,0.1-0.1c0,0,0.1-0.1,0.1-0.1c0,0,0.1-0.1,0.1-0.1c0,0,0.1-0.1,0.1-0.1
				c0,0,0.1-0.1,0.1-0.1c0,0,0.1-0.1,0.1-0.1c0,0,0.1-0.1,0.1-0.1c0,0,0.1-0.1,0.1-0.1c0,0,0.1-0.1,0.1-0.1c0,0,0.1-0.1,0.1-0.1
				c0,0,0.1-0.1,0.1-0.1c0,0,0.1-0.1,0.1-0.1c0,0,0.1-0.1,0.1-0.1c0,0,0.1-0.1,0.1-0.1c0,0,0.1-0.1,0.1-0.1c0,0,0.1-0.1,0.1-0.1
				c0,0,0.1-0.1,0.1-0.1c0,0,0.1-0.1,0.1-0.1c0,0,0.1-0.1,0.1-0.1c0,0,0.1-0.1,0.1-0.1c0,0,0.1-0.1,0.1-0.1c0,0,0.1-0.1,0.1-0.1
				c0,0,0.1-0.1,0.1-0.1c0,0,0.1-0.1,0.1-0.1c0,0,0.1-0.1,0.1-0.1c0,0,0.1-0.1,0.1-0.1c0,0,0.1-0.1,0.1-0.1c0,0,0.1-0.1,0.1-0.1
				c0,0,0.1-0.1,0.1-0.1c0,0,0.1-0.1,0.1-0.1c4.1-4.7,6.2-11.2,5.3-18.4L298.5,76.1c-1.8-14.3-14.9-25.9-29.2-25.9H105.1
				c-7.2,0-13.3,2.9-17.4,7.6c0,0-0.1,0.1-0.1,0.1c0,0-0.1,0.1-0.1,0.1c0,0-0.1,0.1-0.1,0.1c0,0-0.1,0.1-0.1,0.1
				c0,0-0.1,0.1-0.1,0.1c0,0-0.1,0.1-0.1,0.1c0,0-0.1,0.1-0.1,0.1c0,0-0.1,0.1-0.1,0.1c0,0-0.1,0.1-0.1,0.1c0,0-0.1,0.1-0.1,0.1
				c0,0-0.1,0.1-0.1,0.1c0,0-0.1,0.1-0.1,0.1c0,0-0.1,0.1-0.1,0.1c0,0-0.1,0.1-0.1,0.1c0,0-0.1,0.1-0.1,0.1c0,0-0.1,0.1-0.1,0.1
				c0,0-0.1,0.1-0.1,0.1c0,0-0.1,0.1-0.1,0.1c0,0-0.1,0.1-0.1,0.1c0,0-0.1,0.1-0.1,0.1c0,0-0.1,0.1-0.1,0.1c0,0-0.1,0.1-0.1,0.1
				c0,0-0.1,0.1-0.1,0.1c0,0-0.1,0.1-0.1,0.1c0,0-0.1,0.1-0.1,0.1c0,0-0.1,0.1-0.1,0.1c0,0-0.1,0.1-0.1,0.1c0,0-0.1,0.1-0.1,0.1
				c0,0-0.1,0.1-0.1,0.1c0,0-0.1,0.1-0.1,0.1c0,0-0.1,0.1-0.1,0.1c0,0-0.1,0.1-0.1,0.1c0,0-0.1,0.1-0.1,0.1c0,0-0.1,0.1-0.1,0.1
				c0,0-0.1,0.1-0.1,0.1c0,0-0.1,0.1-0.1,0.1c0,0-0.1,0.1-0.1,0.1c0,0-0.1,0.1-0.1,0.1c0,0-0.1,0.1-0.1,0.1c0,0-0.1,0.1-0.1,0.1
				c0,0-0.1,0.1-0.1,0.1c0,0-0.1,0.1-0.1,0.1c0,0-0.1,0.1-0.1,0.1c0,0-0.1,0.1-0.1,0.1c0,0-0.1,0.1-0.1,0.1c0,0-0.1,0.1-0.1,0.1
				c0,0-0.1,0.1-0.1,0.1c0,0-0.1,0.1-0.1,0.1c0,0-0.1,0.1-0.1,0.1c0,0-0.1,0.1-0.1,0.1c0,0-0.1,0.1-0.1,0.1c0,0-0.1,0.1-0.1,0.1
				c0,0-0.1,0.1-0.1,0.1c0,0-0.1,0.1-0.1,0.1c0,0-0.1,0.1-0.1,0.1c0,0-0.1,0.1-0.1,0.1c0,0-0.1,0.1-0.1,0.1c0,0-0.1,0.1-0.1,0.1
				c0,0-0.1,0.1-0.1,0.1c0,0-0.1,0.1-0.1,0.1c0,0-0.1,0.1-0.1,0.1c0,0-0.1,0.1-0.1,0.1c0,0-0.1,0.1-0.1,0.1c0,0-0.1,0.1-0.1,0.1
				c0,0-0.1,0.1-0.1,0.1c0,0-0.1,0.1-0.1,0.1c0,0-0.1,0.1-0.1,0.1c0,0-0.1,0.1-0.1,0.1c0,0-0.1,0.1-0.1,0.1c0,0-0.1,0.1-0.1,0.1
				c0,0-0.1,0.1-0.1,0.1c0,0-0.1,0.1-0.1,0.1c0,0-0.1,0.1-0.1,0.1c0,0-0.1,0.1-0.1,0.1c0,0-0.1,0.1-0.1,0.1c0,0-0.1,0.1-0.1,0.1
				c0,0-0.1,0.1-0.1,0.1c0,0-0.1,0.1-0.1,0.1c0,0-0.1,0.1-0.1,0.1c0,0-0.1,0.1-0.1,0.1c0,0-0.1,0.1-0.1,0.1c0,0-0.1,0.1-0.1,0.1
				c0,0-0.1,0.1-0.1,0.1c0,0-0.1,0.1-0.1,0.1c0,0-0.1,0.1-0.1,0.1c0,0-0.1,0.1-0.1,0.1c0,0-0.1,0.1-0.1,0.1c0,0-0.1,0.1-0.1,0.1
				c0,0-0.1,0.1-0.1,0.1c0,0-0.1,0.1-0.1,0.1c0,0-0.1,0.1-0.1,0.1c0,0-0.1,0.1-0.1,0.1c0,0-0.1,0.1-0.1,0.1c0,0-0.1,0.1-0.1,0.1
				c0,0-0.1,0.1-0.1,0.1c0,0-0.1,0.1-0.1,0.1c0,0-0.1,0.1-0.1,0.1c0,0-0.1,0.1-0.1,0.1c0,0-0.1,0.1-0.1,0.1c0,0-0.1,0.1-0.1,0.1
				c0,0-0.1,0.1-0.1,0.1c0,0-0.1,0.1-0.1,0.1c0,0-0.1,0.1-0.1,0.1c0,0-0.1,0.1-0.1,0.1c0,0-0.1,0.1-0.1,0.1c0,0-0.1,0.1-0.1,0.1
				c0,0-0.1,0.1-0.1,0.1c0,0-0.1,0.1-0.1,0.1c0,0-0.1,0.1-0.1,0.1c0,0-0.1,0.1-0.1,0.1c0,0-0.1,0.1-0.1,0.1c0,0-0.1,0.1-0.1,0.1
				c0,0-0.1,0.1-0.1,0.1c0,0-0.1,0.1-0.1,0.1c0,0-0.1,0.1-0.1,0.1c0,0-0.1,0.1-0.1,0.1c0,0-0.1,0.1-0.1,0.1c0,0-0.1,0.1-0.1,0.1
				c0,0-0.1,0.1-0.1,0.1c0,0-0.1,0.1-0.1,0.1c0,0-0.1,0.1-0.1,0.1c0,0-0.1,0.1-0.1,0.1c0,0-0.1,0.1-0.1,0.1c0,0-0.1,0.1-0.1,0.1
				c0,0-0.1,0.1-0.1,0.1c0,0-0.1,0.1-0.1,0.1c0,0-0.1,0.1-0.1,0.1c0,0-0.1,0.1-0.1,0.1c0,0-0.1,0.1-0.1,0.1c0,0-0.1,0.1-0.1,0.1
				c0,0-0.1,0.1-0.1,0.1c0,0-0.1,0.1-0.1,0.1c0,0-0.1,0.1-0.1,0.1c0,0-0.1,0.1-0.1,0.1c0,0-0.1,0.1-0.1,0.1c0,0-0.1,0.1-0.1,0.1
				c0,0-0.1,0.1-0.1,0.1c0,0-0.1,0.1-0.1,0.1c0,0-0.1,0.1-0.1,0.1c0,0-0.1,0.1-0.1,0.1c0,0-0.1,0.1-0.1,0.1c0,0-0.1,0.1-0.1,0.1
				c0,0-0.1,0.1-0.1,0.1c0,0-0.1,0.1-0.1,0.1c0,0-0.1,0.1-0.1,0.1c0,0-0.1,0.1-0.1,0.1c0,0-0.1,0.1-0.1,0.1c0,0-0.1,0.1-0.1,0.1
				c0,0-0.1,0.1-0.1,0.1c0,0-0.1,0.1-0.1,0.1c0,0-0.1,0.1-0.1,0.1c0,0-0.1,0.1-0.1,0.1c0,0-0.1,0.1-0.1,0.1c0,0-0.1,0.1-0.1,0.1
				c0,0-0.1,0.1-0.1,0.1c0,0-0.1,0.1-0.1,0.1c0,0-0.1,0.1-0.1,0.1c0,0-0.1,0.1-0.1,0.1c0,0-0.1,0.1-0.1,0.1c0,0-0.1,0.1-0.1,0.1
				c0,0-0.1,0.1-0.1,0.1c0,0-0.1,0.1-0.1,0.1c0,0-0.1,0.1-0.1,0.1c0,0-0.1,0.1-0.1,0.1c0,0-0.1,0.1-0.1,0.1c0,0-0.1,0.1-0.1,0.1
				c0,0-0.1,0.1-0.1,0.1c0,0-0.1,0.1-0.1,0.1c0,0-0.1,0.1-0.1,0.1c0,0-0.1,0.1-0.1,0.1c0,0-0.1,0.1-0.1,0.1c0,0-0.1,0.1-0.1,0.1
				c0,0-0.1,0.1-0.1,0.1c0,0-0.1,0.1-0.1,0.1c0,0-0.1,0.1-0.1,0.1c0,0-0.1,0.1-0.1,0.1c0,0-0.1,0.1-0.1,0.1c0,0-0.1,0.1-0.1,0.1
				c0,0-0.1,0.1-0.1,0.1c0,0-0.1,0.1-0.1,0.1c0,0-0.1,0.1-0.1,0.1c0,0-0.1,0.1-0.1,0.1c0,0-0.1,0.1-0.1,0.1c0,0-0.1,0.1-0.1,0.1
				c0,0-0.1,0.1-0.1,0.1c0,0-0.1,0.1-0.1,0.1c0,0-0.1,0.1-0.1,0.1c0,0-0.1,0.1-0.1,0.1c0,0-0.1,0.1-0.1,0.1c0,0-0.1,0.1-0.1,0.1
				c0,0-0.1,0.1-0.1,0.1c0,0-0.1,0.1-0.1,0.1c0,0-0.1,0.1-0.1,0.1c0,0-0.1,0.1-0.1,0.1c0,0-0.1,0.1-0.1,0.1c0,0-0.1,0.1-0.1,0.1
				c0,0-0.1,0.1-0.1,0.1c0,0-0.1,0.1-0.1,0.1c0,0-0.1,0.1-0.1,0.1c-4.1,4.7-6.2,11.2-5.3,18.4l44.5,346.4
				c1.8,14.3,14.9,25.9,29.2,25.9h164.2c7.2,0,13.3-2.9,17.4-7.6C318.5,462.7,318.5,462.6,318.6,462.6z"/>
			<g>
				<linearGradient id="SVGID_2_" gradientUnits="userSpaceOnUse" x1="310.5717" y1="118.3781" x2="310.5717" y2="226.2296">
					<stop  offset="0" style="stop-color:#007D73"/>
					<stop  offset="0.2358" style="stop-color:#027875"/>
					<stop  offset="0.5288" style="stop-color:#08687A"/>
					<stop  offset="0.8508" style="stop-color:#114F81"/>
					<stop  offset="1" style="stop-color:#164186"/>
				</linearGradient>
				<path class="st1" d="M313.5,201.7L313.5,201.7c-3.3,0-6.4-2.7-6.8-6l-4.2-32.8c-0.4-3.3,1.9-6,5.3-6h0c3.3,0,6.4,2.7,6.8,6
					l4.2,32.8C319.1,199,316.8,201.7,313.5,201.7z"/>
			</g>
			<g>
				<linearGradient id="SVGID_3_" gradientUnits="userSpaceOnUse" x1="229.9713" y1="60.7159" x2="196.9797" y2="421.1805">
					<stop  offset="0" style="stop-color:#4ADECE"/>
					<stop  offset="1" style="stop-color:#1697D7"/>
				</linearGradient>
				<path class="st2" d="M320.4,448.4H156.2c-14.3,0-27.4-11.6-29.2-25.9L82.5,76.1c-1.8-14.3,8.3-25.9,22.6-25.9h164.2
					c14.3,0,27.4,11.6,29.2,25.9L343,422.5C344.8,436.8,334.7,448.4,320.4,448.4z"/>
				<linearGradient id="SVGID_4_" gradientUnits="userSpaceOnUse" x1="249.8345" y1="30.6863" x2="172.9197" y2="483.6292">
					<stop  offset="0" style="stop-color:#D3F7FF"/>
					<stop  offset="0.6857" style="stop-color:#BCDDE6"/>
					<stop  offset="1" style="stop-color:#B0CFD9"/>
				</linearGradient>
				<path class="st3" d="M312.6,434.7H160.4c-9.7,0-18.6-7.9-19.9-17.6L97.5,81.5c-1.2-9.7,5.6-17.6,15.4-17.6H265
					c9.7,0,18.6,7.9,19.9,17.6L328,417.1C329.2,426.8,322.3,434.7,312.6,434.7z"/>
				<linearGradient id="SVGID_5_" gradientUnits="userSpaceOnUse" x1="243.1038" y1="70.6213" x2="112.7557" y2="70.6213">
					<stop  offset="0" style="stop-color:#007D73"/>
					<stop  offset="0.2358" style="stop-color:#027875"/>
					<stop  offset="0.5288" style="stop-color:#08687A"/>
					<stop  offset="0.8508" style="stop-color:#114F81"/>
					<stop  offset="1" style="stop-color:#164186"/>
				</linearGradient>
				<path class="st4" d="M141.1,63.9l4.1,7.2c2.1,3.8,6.2,6.3,10.3,6.3h58.9c4.1,0,7.6-2.5,8.7-6.3l2.2-7.2H141.1z"/>
				<g>
					<linearGradient id="SVGID_6_" gradientUnits="userSpaceOnUse" x1="229.9713" y1="60.7159" x2="196.9797" y2="421.1805">
						<stop  offset="0" style="stop-color:#4ADECE"/>
						<stop  offset="1" style="stop-color:#1697D7"/>
					</linearGradient>
					<path class="st5" d="M320.4,448.4H156.2c-14.3,0-27.4-11.6-29.2-25.9L82.5,76.1c-1.8-14.3,8.3-25.9,22.6-25.9h164.2
						c14.3,0,27.4,11.6,29.2,25.9L343,422.5C344.8,436.8,334.7,448.4,320.4,448.4z"/>
					<linearGradient id="SVGID_7_" gradientUnits="userSpaceOnUse" x1="249.8345" y1="30.6863" x2="172.9197" y2="483.6292">
						<stop  offset="0" style="stop-color:#D3F7FF"/>
						<stop  offset="0.6857" style="stop-color:#BCDDE6"/>
						<stop  offset="1" style="stop-color:#B0CFD9"/>
					</linearGradient>
					<path class="st6" d="M312.6,434.7H160.4c-9.7,0-18.6-7.9-19.9-17.6L97.5,81.5c-1.2-9.7,5.6-17.6,15.4-17.6H265
						c9.7,0,18.6,7.9,19.9,17.6L328,417.1C329.2,426.8,322.3,434.7,312.6,434.7z"/>
					<g>
						<defs>
							<path id="SVGID_8_" d="M312.6,434.7H160.4c-9.7,0-18.6-7.9-19.9-17.6L97.5,81.5c-1.2-9.7,5.6-17.6,15.4-17.6H265
								c9.7,0,18.6,7.9,19.9,17.6L328,417.1C329.2,426.8,322.3,434.7,312.6,434.7z"/>
						</defs>
						<clipPath id="SVGID_9_">
							<use xlink:href="#SVGID_8_"  style="overflow:visible;"/>
						</clipPath>
						<g class="st7">
							
								<linearGradient id="SVGID_10_" gradientUnits="userSpaceOnUse" x1="155.7069" y1="166.4807" x2="529.562" y2="166.4807" gradientTransform="matrix(1 0 0.1253 1 -32.8407 0)">
								<stop  offset="0" style="stop-color:#4ADECE"/>
								<stop  offset="1" style="stop-color:#1697D7"/>
							</linearGradient>
							<path class="st8" d="M223.3,179.3h-88.9l-13.8,11.4l-3.8-29.9c-1.3-10.2,6-18.5,16.2-18.5h85.7c10.2,0,19.6,8.3,20.8,18.5v0
								C240.8,171,233.5,179.3,223.3,179.3z"/>
							
								<linearGradient id="SVGID_11_" gradientUnits="userSpaceOnUse" x1="156.8002" y1="107.4494" x2="530.6553" y2="107.4494" gradientTransform="matrix(1 0 0.1253 1 -32.8407 0)">
								<stop  offset="0" style="stop-color:#4ADECE"/>
								<stop  offset="1" style="stop-color:#1697D7"/>
							</linearGradient>
							<path class="st9" d="M217,120.2H128l-13.8,11.4l-3.8-29.9c-1.3-10.2,6-18.5,16.2-18.5h85.7c10.2,0,19.6,8.3,20.8,18.5v0
								C234.5,112,227.2,120.2,217,120.2z"/>
							
								<linearGradient id="SVGID_12_" gradientUnits="userSpaceOnUse" x1="325.7284" y1="224.7989" x2="87.1883" y2="224.7989" gradientTransform="matrix(-1 0 0.1253 1 329.0958 0)">
								<stop  offset="0" style="stop-color:#4ADECE"/>
								<stop  offset="1" style="stop-color:#1697D7"/>
							</linearGradient>
							<path class="st10" d="M186.5,237.6h88.9l16.7,11.4l-3.8-29.9c-1.3-10.2-10.6-18.5-20.8-18.5h-85.7
								c-10.2,0-17.5,8.3-16.2,18.5l0,0C167,229.3,176.3,237.6,186.5,237.6z"/>
							
								<linearGradient id="SVGID_13_" gradientUnits="userSpaceOnUse" x1="155.7069" y1="283.1171" x2="529.562" y2="283.1171" gradientTransform="matrix(1 0 0.1253 1 -32.8407 0)">
								<stop  offset="0" style="stop-color:#4ADECE"/>
								<stop  offset="1" style="stop-color:#1697D7"/>
							</linearGradient>
							<path class="st11" d="M237.9,295.9H149l-13.8,11.4l-3.8-29.9c-1.3-10.2,6-18.5,16.2-18.5h85.7c10.2,0,19.6,8.3,20.8,18.5l0,0
								C255.4,287.6,248.1,295.9,237.9,295.9z"/>
							
								<linearGradient id="SVGID_14_" gradientUnits="userSpaceOnUse" x1="325.7284" y1="341.4353" x2="87.1883" y2="341.4353" gradientTransform="matrix(-1 0 0.1253 1 329.0958 0)">
								<stop  offset="0" style="stop-color:#4ADECE"/>
								<stop  offset="1" style="stop-color:#1697D7"/>
							</linearGradient>
							<path class="st12" d="M201.1,354.2h88.9l16.7,11.4l-3.8-29.9c-1.3-10.2-10.6-18.5-20.8-18.5h-85.7
								c-10.2,0-17.5,8.3-16.2,18.5v0C181.6,345.9,190.9,354.2,201.1,354.2z"/>
							<g>
								
									<linearGradient id="SVGID_15_" gradientUnits="userSpaceOnUse" x1="108.9855" y1="323.1155" x2="271.0711" y2="323.1155" gradientTransform="matrix(-1 0 -0.2507 -1 498.9041 715.4275)">
									<stop  offset="0" style="stop-color:#4ADECE"/>
									<stop  offset="1" style="stop-color:#1697D7"/>
								</linearGradient>
								<path class="st13" d="M158.8,379.3h134.8c7.2,0,13.8,5.8,14.7,13.1v0c0.9,7.2-4.2,13.1-11.4,13.1H162.1
									c-7.2,0-13.8-5.8-14.7-13.1l0,0C146.5,385.1,151.6,379.3,158.8,379.3z"/>
								<linearGradient id="SVGID_16_" gradientUnits="userSpaceOnUse" x1="234.1872" y1="489.0102" x2="299.1375" y2="374.4926">
									<stop  offset="0" style="stop-color:#4ADECE"/>
									<stop  offset="1" style="stop-color:#1697D7"/>
								</linearGradient>
								<path class="st14" d="M274.3,379.3h19.3c7.2,0,13.8,5.8,14.7,13.1v0c0.9,7.2-4.2,13.1-11.4,13.1h-19.3L274.3,379.3z"/>
							</g>
							<line class="st15" x1="124.3" y1="96.2" x2="221.6" y2="96.1"/>
							<line class="st15" x1="126.1" y1="107.1" x2="223.4" y2="107"/>
							<line class="st15" x1="129.8" y1="154.6" x2="227.1" y2="154.5"/>
							<line class="st15" x1="131.6" y1="165.5" x2="228.9" y2="165.4"/>
							<line class="st15" x1="145.6" y1="272.2" x2="243" y2="272.2"/>
							<line class="st15" x1="147.4" y1="283.1" x2="244.7" y2="283"/>
							<line class="st16" x1="179.3" y1="212.6" x2="276.6" y2="212.5"/>
							<line class="st16" x1="181.1" y1="223.5" x2="278.4" y2="223.4"/>
							<line class="st16" x1="193.9" y1="329.5" x2="291.2" y2="329.4"/>
							<line class="st16" x1="195.7" y1="340.3" x2="293" y2="340.2"/>
						</g>
						<linearGradient id="SVGID_17_" gradientUnits="userSpaceOnUse" x1="187.0728" y1="187.7496" x2="187.0728" y2="3.0786">
							<stop  offset="0" style="stop-color:#007D73"/>
							<stop  offset="0.2358" style="stop-color:#027875"/>
							<stop  offset="0.5288" style="stop-color:#08687A"/>
							<stop  offset="0.8508" style="stop-color:#114F81"/>
							<stop  offset="1" style="stop-color:#164186"/>
						</linearGradient>
						<polygon class="st17" points="86.6,87.6 292.9,85.7 284.3,55.7 81.2,57.5 						"/>
					</g>
					<linearGradient id="SVGID_18_" gradientUnits="userSpaceOnUse" x1="243.1038" y1="70.6213" x2="112.7557" y2="70.6213">
						<stop  offset="0" style="stop-color:#007D73"/>
						<stop  offset="0.2358" style="stop-color:#027875"/>
						<stop  offset="0.5288" style="stop-color:#08687A"/>
						<stop  offset="0.8508" style="stop-color:#114F81"/>
						<stop  offset="1" style="stop-color:#164186"/>
					</linearGradient>
					<path class="st18" d="M141.1,63.9l4.1,7.2c2.1,3.8,6.2,6.3,10.3,6.3h58.9c4.1,0,7.6-2.5,8.7-6.3l2.2-7.2H141.1z"/>
					<linearGradient id="SVGID_19_" gradientUnits="userSpaceOnUse" x1="292.6733" y1="53.5369" x2="292.6733" y2="417.2424">
						<stop  offset="0" style="stop-color:#007D73"/>
						<stop  offset="0.2358" style="stop-color:#027875"/>
						<stop  offset="0.5288" style="stop-color:#08687A"/>
						<stop  offset="0.8508" style="stop-color:#114F81"/>
						<stop  offset="1" style="stop-color:#164186"/>
					</linearGradient>
					<path class="st19" d="M265,63.9h-7.8c9.7,0,18.6,7.9,19.9,17.6l43.1,335.6c1.2,9.7-5.6,17.6-15.4,17.6h7.8
						c9.7,0,16.6-7.9,15.4-17.6L284.9,81.5C283.7,71.8,274.8,63.9,265,63.9z"/>
					<linearGradient id="SVGID_20_" gradientUnits="userSpaceOnUse" x1="421.7737" y1="144.2837" x2="-18.4871" y2="365.4428">
						<stop  offset="0" style="stop-color:#FFECAD"/>
						<stop  offset="0.1041" style="stop-color:#EDE4AD;stop-opacity:0.8959"/>
						<stop  offset="0.3141" style="stop-color:#BCCFAC;stop-opacity:0.6859"/>
						<stop  offset="0.6112" style="stop-color:#6FACAB;stop-opacity:0.3888"/>
						<stop  offset="0.9811" style="stop-color:#067DAA;stop-opacity:1.888674e-02"/>
						<stop  offset="1" style="stop-color:#007BAA;stop-opacity:0"/>
					</linearGradient>
					<path class="st20" d="M312.6,434.7H160.4c-9.7,0-18.6-7.9-19.9-17.6L97.5,81.5c-1.2-9.7,5.6-17.6,15.4-17.6H265
						c9.7,0,18.6,7.9,19.9,17.6L328,417.1C329.2,426.8,322.3,434.7,312.6,434.7z"/>
					<linearGradient id="SVGID_21_" gradientUnits="userSpaceOnUse" x1="186.7547" y1="56.7605" x2="153.763" y2="417.2251">
						<stop  offset="0" style="stop-color:#4ADECE"/>
						<stop  offset="1" style="stop-color:#1697D7"/>
					</linearGradient>
					<path class="st21" d="M220.3,77.4h-58.9c-4.1,0-8.2-2.5-10.3-6.3l-11.6-20.7h96L229,71.1C227.8,74.9,224.4,77.4,220.3,77.4z"/>
					<g>
						<linearGradient id="SVGID_22_" gradientUnits="userSpaceOnUse" x1="243.1038" y1="66.3016" x2="112.7557" y2="66.3016">
							<stop  offset="0" style="stop-color:#007D73"/>
							<stop  offset="0.2358" style="stop-color:#027875"/>
							<stop  offset="0.5288" style="stop-color:#08687A"/>
							<stop  offset="0.8508" style="stop-color:#114F81"/>
							<stop  offset="1" style="stop-color:#164186"/>
						</linearGradient>
						<path class="st22" d="M205.4,68.7h-42.9c-1.3,0-2.6-1.1-2.7-2.4l0,0c-0.2-1.3,0.8-2.4,2.1-2.4h42.9c1.3,0,2.6,1.1,2.7,2.4l0,0
							C207.7,67.6,206.7,68.7,205.4,68.7z"/>
						<linearGradient id="SVGID_23_" gradientUnits="userSpaceOnUse" x1="243.1038" y1="66.3016" x2="112.7557" y2="66.3016">
							<stop  offset="0" style="stop-color:#007D73"/>
							<stop  offset="0.2358" style="stop-color:#027875"/>
							<stop  offset="0.5288" style="stop-color:#08687A"/>
							<stop  offset="0.8508" style="stop-color:#114F81"/>
							<stop  offset="1" style="stop-color:#164186"/>
						</linearGradient>
						<path class="st23" d="M219,66.3c0.2,1.9-1.1,3.4-3,3.4c-1.9,0-3.6-1.5-3.9-3.4s1.1-3.4,3-3.4S218.7,64.4,219,66.3z"/>
					</g>
				</g>
				<linearGradient id="SVGID_24_" gradientUnits="userSpaceOnUse" x1="292.6733" y1="53.5369" x2="292.6733" y2="417.2424">
					<stop  offset="0" style="stop-color:#007D73"/>
					<stop  offset="0.2358" style="stop-color:#027875"/>
					<stop  offset="0.5288" style="stop-color:#08687A"/>
					<stop  offset="0.8508" style="stop-color:#114F81"/>
					<stop  offset="1" style="stop-color:#164186"/>
				</linearGradient>
				<path class="st24" d="M265,63.9h-7.8c9.7,0,18.6,7.9,19.9,17.6l43.1,335.6c1.2,9.7-5.6,17.6-15.4,17.6h7.8
					c9.7,0,16.6-7.9,15.4-17.6L284.9,81.5C283.7,71.8,274.8,63.9,265,63.9z"/>
				<linearGradient id="SVGID_25_" gradientUnits="userSpaceOnUse" x1="421.7737" y1="144.2837" x2="-18.4871" y2="365.4428">
					<stop  offset="0" style="stop-color:#FFECAD"/>
					<stop  offset="0.1041" style="stop-color:#EDE4AD;stop-opacity:0.8959"/>
					<stop  offset="0.3141" style="stop-color:#BCCFAC;stop-opacity:0.6859"/>
					<stop  offset="0.6112" style="stop-color:#6FACAB;stop-opacity:0.3888"/>
					<stop  offset="0.9811" style="stop-color:#067DAA;stop-opacity:1.888674e-02"/>
					<stop  offset="1" style="stop-color:#007BAA;stop-opacity:0"/>
				</linearGradient>
				<path class="st25" d="M312.6,434.7H160.4c-9.7,0-18.6-7.9-19.9-17.6L97.5,81.5c-1.2-9.7,5.6-17.6,15.4-17.6H265
					c9.7,0,18.6,7.9,19.9,17.6L328,417.1C329.2,426.8,322.3,434.7,312.6,434.7z"/>
				<linearGradient id="SVGID_26_" gradientUnits="userSpaceOnUse" x1="374.7839" y1="462.881" x2="79.9286" y2="74.3254">
					<stop  offset="1.923077e-03" style="stop-color:#CACDC2"/>
					<stop  offset="8.413462e-02" style="stop-color:#CDBCB3"/>
					<stop  offset="0.2298" style="stop-color:#C59B9F"/>
					<stop  offset="0.3896" style="stop-color:#BB6A81"/>
					<stop  offset="0.5092" style="stop-color:#9E5574"/>
					<stop  offset="0.6577" style="stop-color:#634A66"/>
					<stop  offset="0.8595" style="stop-color:#253C4B"/>
					<stop  offset="1" style="stop-color:#052C35"/>
				</linearGradient>
				<path class="st26" d="M312.6,434.7H160.4c-9.7,0-18.6-7.9-19.9-17.6L97.5,81.5c-1.2-9.7,5.6-17.6,15.4-17.6H265
					c9.7,0,18.6,7.9,19.9,17.6L328,417.1C329.2,426.8,322.3,434.7,312.6,434.7z"/>
				<linearGradient id="SVGID_27_" gradientUnits="userSpaceOnUse" x1="186.7547" y1="56.7605" x2="153.763" y2="417.2251">
					<stop  offset="0" style="stop-color:#4ADECE"/>
					<stop  offset="1" style="stop-color:#1697D7"/>
				</linearGradient>
				<path class="st27" d="M220.3,77.4h-58.9c-4.1,0-8.2-2.5-10.3-6.3l-11.6-20.7h96L229,71.1C227.8,74.9,224.4,77.4,220.3,77.4z"/>
				<g>
					<linearGradient id="SVGID_28_" gradientUnits="userSpaceOnUse" x1="243.1038" y1="66.3016" x2="112.7557" y2="66.3016">
						<stop  offset="0" style="stop-color:#007D73"/>
						<stop  offset="0.2358" style="stop-color:#027875"/>
						<stop  offset="0.5288" style="stop-color:#08687A"/>
						<stop  offset="0.8508" style="stop-color:#114F81"/>
						<stop  offset="1" style="stop-color:#164186"/>
					</linearGradient>
					<path class="st28" d="M205.4,68.7h-42.9c-1.3,0-2.6-1.1-2.7-2.4l0,0c-0.2-1.3,0.8-2.4,2.1-2.4h42.9c1.3,0,2.6,1.1,2.7,2.4l0,0
						C207.7,67.6,206.7,68.7,205.4,68.7z"/>
					<linearGradient id="SVGID_29_" gradientUnits="userSpaceOnUse" x1="243.1038" y1="66.3016" x2="112.7557" y2="66.3016">
						<stop  offset="0" style="stop-color:#007D73"/>
						<stop  offset="0.2358" style="stop-color:#027875"/>
						<stop  offset="0.5288" style="stop-color:#08687A"/>
						<stop  offset="0.8508" style="stop-color:#114F81"/>
						<stop  offset="1" style="stop-color:#164186"/>
					</linearGradient>
					<path class="st29" d="M219,66.3c0.2,1.9-1.1,3.4-3,3.4c-1.9,0-3.6-1.5-3.9-3.4s1.1-3.4,3-3.4S218.7,64.4,219,66.3z"/>
				</g>
			</g>
			<g>
				<g>
					<linearGradient id="SVGID_30_" gradientUnits="userSpaceOnUse" x1="90.8109" y1="76.7141" x2="90.8109" y2="388.8378">
						<stop  offset="0" style="stop-color:#4ADECE"/>
						<stop  offset="1" style="stop-color:#1697D7"/>
					</linearGradient>
					<path class="st30" d="M95.6,254.3h-4.4c-3.3,0-6.4-2.7-6.8-6l-3.7-28.5c-0.4-3.3,1.9-6,5.3-6h4.4c3.3,0,6.4,2.7,6.8,6l3.7,28.5
						C101.3,251.6,98.9,254.3,95.6,254.3z"/>
					<linearGradient id="SVGID_31_" gradientUnits="userSpaceOnUse" x1="-77.8022" y1="234.0148" x2="116.8302" y2="234.0148">
						<stop  offset="0" style="stop-color:#007D73"/>
						<stop  offset="0.2358" style="stop-color:#027875"/>
						<stop  offset="0.5288" style="stop-color:#08687A"/>
						<stop  offset="0.8508" style="stop-color:#114F81"/>
						<stop  offset="1" style="stop-color:#164186"/>
					</linearGradient>
					<path class="st31" d="M91.2,254.3L91.2,254.3c-3.3,0-6.4-2.7-6.8-6l-3.7-28.5c-0.4-3.3,1.9-6,5.3-6h0c3.3,0,6.4,2.7,6.8,6
						l3.7,28.5C96.9,251.6,94.6,254.3,91.2,254.3z"/>
				</g>
				<g>
					<linearGradient id="SVGID_32_" gradientUnits="userSpaceOnUse" x1="83.505" y1="76.7141" x2="83.505" y2="388.8378">
						<stop  offset="0" style="stop-color:#4ADECE"/>
						<stop  offset="1" style="stop-color:#1697D7"/>
					</linearGradient>
					<path class="st32" d="M88.3,197.3h-4.4c-3.3,0-6.4-2.7-6.8-6l-3.7-28.5c-0.4-3.3,1.9-6,5.3-6h4.4c3.3,0,6.4,2.7,6.8,6l3.7,28.5
						C94,194.6,91.6,197.3,88.3,197.3z"/>
					<linearGradient id="SVGID_33_" gradientUnits="userSpaceOnUse" x1="-77.8022" y1="177.08" x2="116.8302" y2="177.08">
						<stop  offset="0" style="stop-color:#007D73"/>
						<stop  offset="0.2358" style="stop-color:#027875"/>
						<stop  offset="0.5288" style="stop-color:#08687A"/>
						<stop  offset="0.8508" style="stop-color:#114F81"/>
						<stop  offset="1" style="stop-color:#164186"/>
					</linearGradient>
					<path class="st33" d="M83.9,197.3L83.9,197.3c-3.3,0-6.4-2.7-6.8-6l-3.7-28.5c-0.4-3.3,1.9-6,5.3-6h0c3.3,0,6.4,2.7,6.8,6
						l3.7,28.5C89.6,194.6,87.2,197.3,83.9,197.3z"/>
				</g>
			</g>
		</g>
		<linearGradient id="SVGID_34_" gradientUnits="userSpaceOnUse" x1="189.2227" y1="266.655" x2="351.8394" y2="266.655">
			<stop  offset="1.923077e-03" style="stop-color:#CACDC2"/>
			<stop  offset="8.413462e-02" style="stop-color:#CDBCB3"/>
			<stop  offset="0.2298" style="stop-color:#C59B9F"/>
			<stop  offset="0.3896" style="stop-color:#BB6A81"/>
			<stop  offset="0.5092" style="stop-color:#9E5574"/>
			<stop  offset="0.6577" style="stop-color:#634A66"/>
			<stop  offset="0.8595" style="stop-color:#253C4B"/>
			<stop  offset="1" style="stop-color:#052C35"/>
		</linearGradient>
		<path class="st34" d="M311.3,192.3H193.9c-8,0-13.7,6.5-12.7,14.4L196.8,341l22.6-24.6h107.8L311.3,192.3z"/>
		<g>
			<linearGradient id="SVGID_35_" gradientUnits="userSpaceOnUse" x1="220.3832" y1="244.1384" x2="437.7979" y2="244.1384">
				<stop  offset="0" style="stop-color:#E8E0E3"/>
				<stop  offset="0.8065" style="stop-color:#C5EEFF"/>
			</linearGradient>
			<path class="st35" d="M411.6,161.5h-165c-14.5,0-26.2,11.7-26.2,26.2v139.1l28.9-24.8h162.3c14.5,0,26.2-11.7,26.2-26.2v-88.1
				C437.8,173.2,426.1,161.5,411.6,161.5z"/>
			<linearGradient id="SVGID_36_" gradientUnits="userSpaceOnUse" x1="236.0933" y1="159.7031" x2="401.1042" y2="324.7139">
				<stop  offset="0" style="stop-color:#1697D7"/>
				<stop  offset="1" style="stop-color:#4ADECE"/>
			</linearGradient>
			<path class="st36" d="M411.6,161.5h-165c-14.5,0-26.2,11.7-26.2,26.2v139.1l28.9-24.8h162.3c14.5,0,26.2-11.7,26.2-26.2v-88.1
				C437.8,173.2,426.1,161.5,411.6,161.5z"/>
		</g>
		<g>
			<g>
				<g>
					<linearGradient id="SVGID_37_" gradientUnits="userSpaceOnUse" x1="333.1602" y1="189.9843" x2="306.0561" y2="307.4357">
						<stop  offset="0" style="stop-color:#F88C57"/>
						<stop  offset="0.8259" style="stop-color:#D65B2B"/>
						<stop  offset="1" style="stop-color:#CE5021"/>
					</linearGradient>
					<path class="st37" d="M396.3,284H251.6c-5.5,0-9.9-4.4-9.9-9.9v-88.3c0-5.5,4.4-9.9,9.9-9.9h144.7c5.5,0,9.9,4.4,9.9,9.9v88.3
						C406.1,279.6,401.7,284,396.3,284z"/>
					<linearGradient id="SVGID_38_" gradientUnits="userSpaceOnUse" x1="332.5297" y1="322.1221" x2="332.9159" y2="201.6141">
						<stop  offset="0" style="stop-color:#F6DE55"/>
						<stop  offset="0.3154" style="stop-color:#F6D355"/>
						<stop  offset="0.8672" style="stop-color:#F5B654"/>
						<stop  offset="1" style="stop-color:#F5AE54"/>
					</linearGradient>
					<path class="st38" d="M405.2,284H260.5c-5.5,0-9.9-4.4-9.9-9.9v-88.3c0-5.5,4.4-9.9,9.9-9.9h144.7c5.5,0,9.9,4.4,9.9,9.9v88.3
						C415,279.6,410.6,284,405.2,284z"/>
					<linearGradient id="SVGID_39_" gradientUnits="userSpaceOnUse" x1="310.4948" y1="396.6236" x2="338.7157" y2="250.2449">
						<stop  offset="0" style="stop-color:#F6DE55"/>
						<stop  offset="0.3154" style="stop-color:#F6D355"/>
						<stop  offset="0.8672" style="stop-color:#F5B654"/>
						<stop  offset="1" style="stop-color:#F5AE54"/>
					</linearGradient>
					<path class="st39" d="M332.8,219.9l-78,60.9c2.2,2,5.2,3.2,8.4,3.2h139.3c3.2,0,6.2-1.2,8.4-3.2L332.8,219.9z"/>
					<linearGradient id="SVGID_40_" gradientUnits="userSpaceOnUse" x1="333.364" y1="163.7131" x2="329.4673" y2="276.0081">
						<stop  offset="0" style="stop-color:#F6DE55"/>
						<stop  offset="0.3154" style="stop-color:#F6D355"/>
						<stop  offset="0.8672" style="stop-color:#F5B654"/>
						<stop  offset="1" style="stop-color:#F5AE54"/>
					</linearGradient>
					<path class="st40" d="M332.8,240.1l78-60.9c-2.2-2-5.2-3.2-8.4-3.2H263.2c-3.2,0-6.2,1.2-8.4,3.2L332.8,240.1z"/>
				</g>
				<polyline class="st41" points="254.8,179.2 332.8,240.1 410.9,179.2 				"/>
			</g>
			<g>
				<circle class="st42" cx="401.3" cy="176" r="32.2"/>
				<circle class="st43" cx="405.6" cy="176" r="32.2"/>
				<path class="st42" d="M413,192.1h-6.2v-26.6l-5.8,0.2v-4.8l12-1.2V192.1z"/>
				<path class="st44" d="M410.1,192.1H404v-26.3l-5.8,0.2v-4.7l11.9-1.2V192.1z"/>
			</g>
		</g>
		<g>
			<g>
				<g>
					<line class="st45" x1="405.6" y1="108.5" x2="405.6" y2="128"/>
				</g>
				<g>
					<line class="st45" x1="453.3" y1="128.3" x2="439.5" y2="142.1"/>
				</g>
				<g>
					<line class="st45" x1="473.1" y1="176" x2="453.6" y2="176"/>
				</g>
				<g>
					<line class="st45" x1="357.8" y1="128.3" x2="371.6" y2="142.1"/>
				</g>
			</g>
			<g>
				<g>
					<line class="st45" x1="40.1" y1="39.4" x2="56.1" y2="50.6"/>
				</g>
				<g>
					<line class="st45" x1="83.6" y1="11.7" x2="87" y2="30.9"/>
				</g>
				<g>
					<line class="st45" x1="134.1" y1="22.8" x2="122.9" y2="38.8"/>
				</g>
				<g>
					<line class="st45" x1="28.9" y1="89.9" x2="48.1" y2="86.5"/>
				</g>
			</g>
		</g>
	</g>
</g>
<g id="DESIGNED_BY_FREEPIK">
</g>
</svg>
